<svg width="128" height="125" viewBox="0 0 128 125" fill="none" xmlns="http://www.w3.org/2000/svg">
<path d="M42.5 71.4399C42.5 70.772 43.0625 70.2255 43.75 70.2255H49.25C49.9375 70.2255 50.5 70.772 50.5 71.4399V92.2065H94.875V68.7682C94.875 52.2035 81.05 38.772 64 38.772C46.95 38.772 33.125 52.2035 33.125 68.7682V92.2065H42.5V71.4399Z" fill="#FC5555" fill-opacity="0.15"/>
<path d="M27.1124 38.1045L32.0624 33.2954C32.4499 32.9189 32.4499 32.2996 32.0624 31.9231L23.5749 23.6772C23.3869 23.4964 23.1331 23.3949 22.8686 23.3949C22.6041 23.3949 22.3503 23.4964 22.1624 23.6772L17.2124 28.4863C17.0263 28.6689 16.9219 28.9155 16.9219 29.1724C16.9219 29.4294 17.0263 29.676 17.2124 29.8586L25.6999 38.1045C26.0874 38.481 26.7124 38.481 27.1124 38.1045ZM110.812 28.4863L105.862 23.6772C105.674 23.4964 105.421 23.3949 105.156 23.3949C104.892 23.3949 104.638 23.4964 104.45 23.6772L95.9624 31.9231C95.7763 32.1057 95.6719 32.3523 95.6719 32.6092C95.6719 32.8662 95.7763 33.1128 95.9624 33.2954L100.912 38.1045C101.3 38.481 101.937 38.481 102.325 38.1045L110.812 29.8586C111.2 29.47 111.2 28.8628 110.812 28.4863ZM60.4999 22.2563H67.4999C68.0499 22.2563 68.4999 21.8191 68.4999 21.2848V9.62632C68.4999 9.09198 68.0499 8.65479 67.4999 8.65479H60.4999C59.9499 8.65479 59.4999 9.09198 59.4999 9.62632V21.2848C59.4999 21.8191 59.9499 22.2563 60.4999 22.2563ZM104 108.723H23.9999C21.7874 108.723 19.9999 110.46 19.9999 112.609V115.524C19.9999 116.058 20.4499 116.495 20.9999 116.495H107C107.55 116.495 108 116.058 108 115.524V112.609C108 110.46 106.212 108.723 104 108.723ZM24.1249 97.0647C24.1249 99.2142 25.9124 100.951 28.1249 100.951H99.8749C102.087 100.951 103.875 99.2142 103.875 97.0647V68.7686C103.875 47.3705 86.0249 30.0286 63.9999 30.0286C41.9749 30.0286 24.1249 47.3705 24.1249 68.7686V97.0647ZM33.1249 68.7686C33.1249 52.2039 46.9499 38.7724 63.9999 38.7724C81.0499 38.7724 94.8749 52.2039 94.8749 68.7686V92.207H50.4999V71.4404C50.4999 70.7724 49.9374 70.2259 49.2499 70.2259H43.7499C43.0624 70.2259 42.4999 70.7724 42.4999 71.4404V92.207H33.1249V68.7686Z" fill="#FC5555"/>
</svg>
