<svg width="118" height="118" viewBox="0 0 118 118" fill="none" xmlns="http://www.w3.org/2000/svg">
<path d="M3.24167 3.24167C4.26784 2.21403 5.48654 1.39878 6.82806 0.842543C8.16958 0.286308 9.6076 0 11.0599 0C12.5121 0 13.9501 0.286308 15.2917 0.842543C16.6332 1.39878 17.8519 2.21403 18.8781 3.24167L59.0016 43.3505L99.1252 3.24167C100.152 2.21497 101.371 1.40054 102.712 0.844896C104.054 0.28925 105.491 0.00326379 106.943 0.00326376C108.395 0.00326374 109.833 0.28925 111.175 0.844896C112.516 1.40054 113.735 2.21497 114.762 3.24167C115.788 4.26837 116.603 5.48724 117.158 6.82868C117.714 8.17013 118 9.60789 118 11.0599C118 12.5118 117.714 13.9496 117.158 15.291C116.603 16.6325 115.788 17.8514 114.762 18.8781L74.6528 59.0016L114.762 99.1252C116.835 101.199 118 104.011 118 106.943C118 109.876 116.835 112.688 114.762 114.762C112.688 116.835 109.876 118 106.943 118C104.011 118 101.199 116.835 99.1252 114.762L59.0016 74.6528L18.8781 114.762C16.8045 116.835 13.9923 118 11.0599 118C8.12747 118 5.31518 116.835 3.24167 114.762C1.16815 112.688 0.00326376 109.876 0.00326376 106.943C0.00326376 104.011 1.16815 101.199 3.24167 99.1252L43.3505 59.0016L3.24167 18.8781C2.21403 17.8519 1.39878 16.6332 0.842543 15.2917C0.286308 13.9501 0 12.5121 0 11.0599C0 9.6076 0.286308 8.16958 0.842543 6.82806C1.39878 5.48654 2.21403 4.26784 3.24167 3.24167Z" fill="#F24E1E"/>
</svg>
