<svg width="128" height="125" viewBox="0 0 128 125" fill="none" xmlns="http://www.w3.org/2000/svg">
<path d="M42.5 71.4399C42.5 70.772 43.0625 70.2255 43.75 70.2255H49.25C49.9375 70.2255 50.5 70.772 50.5 71.4399V92.2065H94.875V68.7682C94.875 52.2035 81.05 38.772 64 38.772C46.95 38.772 33.125 52.2035 33.125 68.7682V92.2065H42.5V71.4399Z" fill="#FC5555" fill-opacity="0.15"/>
<path d="M27.1126 38.1045L32.0626 33.2954C32.4501 32.9189 32.4501 32.2996 32.0626 31.9231L23.5751 23.6772C23.3872 23.4964 23.1334 23.3949 22.8689 23.3949C22.6044 23.3949 22.3506 23.4964 22.1626 23.6772L17.2126 28.4863C17.0265 28.6689 16.9221 28.9155 16.9221 29.1724C16.9221 29.4294 17.0265 29.676 17.2126 29.8586L25.7001 38.1045C26.0876 38.481 26.7126 38.481 27.1126 38.1045ZM110.813 28.4863L105.863 23.6772C105.675 23.4964 105.421 23.3949 105.156 23.3949C104.892 23.3949 104.638 23.4964 104.45 23.6772L95.9626 31.9231C95.7765 32.1057 95.6721 32.3523 95.6721 32.6092C95.6721 32.8662 95.7765 33.1128 95.9626 33.2954L100.913 38.1045C101.3 38.481 101.938 38.481 102.325 38.1045L110.813 29.8586C111.2 29.47 111.2 28.8628 110.813 28.4863ZM60.5001 22.2563H67.5001C68.0501 22.2563 68.5001 21.8191 68.5001 21.2848V9.62632C68.5001 9.09198 68.0501 8.65479 67.5001 8.65479H60.5001C59.9501 8.65479 59.5001 9.09198 59.5001 9.62632V21.2848C59.5001 21.8191 59.9501 22.2563 60.5001 22.2563ZM104 108.723H24.0001C21.7876 108.723 20.0001 110.46 20.0001 112.609V115.524C20.0001 116.058 20.4501 116.495 21.0001 116.495H107C107.55 116.495 108 116.058 108 115.524V112.609C108 110.46 106.213 108.723 104 108.723ZM24.1251 97.0647C24.1251 99.2142 25.9126 100.951 28.1251 100.951H99.8751C102.088 100.951 103.875 99.2142 103.875 97.0647V68.7686C103.875 47.3705 86.0251 30.0286 64.0001 30.0286C41.9751 30.0286 24.1251 47.3705 24.1251 68.7686V97.0647ZM33.1251 68.7686C33.1251 52.2039 46.9501 38.7724 64.0001 38.7724C81.0501 38.7724 94.8751 52.2039 94.8751 68.7686V92.207H50.5001V71.4404C50.5001 70.7724 49.9376 70.2259 49.2501 70.2259H43.7501C43.0626 70.2259 42.5001 70.7724 42.5001 71.4404V92.207H33.1251V68.7686Z" fill="#FC5555"/>
</svg>
