<svg width="176" height="165" viewBox="0 0 176 165" fill="none" xmlns="http://www.w3.org/2000/svg">
<g id="Logo DD Illus 2" clip-path="url(#clip0_808_2977)" filter="url(#filter0_i_808_2977)">
<path id="Vector" d="M175.997 73.3483L175.652 14.2938L105.422 0L35.5472 14.2938L35.6195 45.8861L47.0082 43.7315L47.2699 22.9052L105.391 10.8589L164.567 23.0738L163.929 83.9937L163.454 82.4931C160.052 67.979 153.488 68.0685 153.488 68.0685L126.054 68.8877L116.205 53.7713C109.407 43.8141 102.254 44.6333 102.254 44.6333C92.291 44.0482 66.8515 46.158 66.8515 46.158L13.6238 53.5441C9.63583 54.1327 9.98022 58.459 9.98022 58.459C11.034 62.5616 14.6707 62.0901 14.6707 62.0901L31.6763 59.8736C36.3633 59.051 37.3035 63.6217 37.3035 63.6217C38.1231 67.6039 34.1386 68.6605 34.1386 68.6605L24.6406 70.1818C21.2415 71.0044 21.4757 75.2206 21.4757 75.2206C21.7099 79.3232 26.0491 78.7347 26.0491 78.7347L50.9066 75.3238C55.3595 74.7387 56.0723 78.0188 56.0723 78.0188C57.2432 82.3554 53.2587 83.6427 53.2587 83.6427L4.12572 90.571C-0.561327 91.5003 0.0241229 95.0213 0.0241229 95.0213C0.258303 99.2409 5.41715 99.2409 5.41715 99.2409L65.6186 91.0666C71.8898 90.1236 72.2135 93.9096 72.2135 93.9096C73.0917 98.6558 68.9006 99.709 68.9006 99.709L24.4753 105.801C20.8937 106.269 20.9522 110.774 20.9522 110.774C21.7719 114.708 26.5106 115.001 26.5106 115.001L117.603 101.994C122.177 81.6086 134.133 82.5 134.133 82.5C151.893 81.1233 155.764 97.0726 155.764 97.0726L161.216 96.1949C148.377 141.011 105.77 152.668 105.77 152.668C76.1016 146.108 58.6449 115.762 58.6449 115.762L47.5179 117.754C63.2286 153.257 105.787 165 105.787 165C177.725 140.484 175.997 73.3483 175.997 73.3483ZM102.619 72.2262L99.6746 49.1661C108.687 47.8479 112.028 53.0313 112.028 53.0313L123.048 70.2403L102.619 72.2262Z" fill="white"/>
<path id="Vector_2" d="M137.87 86.2791C134.992 86.2791 132.178 87.1321 129.784 88.7303C127.391 90.3286 125.526 92.6002 124.424 95.258C123.323 97.9157 123.035 100.84 123.596 103.662C124.158 106.483 125.544 109.075 127.579 111.109C129.614 113.143 132.208 114.528 135.031 115.09C137.854 115.651 140.78 115.363 143.439 114.262C146.099 113.161 148.372 111.297 149.971 108.905C151.57 106.513 152.424 103.701 152.424 100.824C152.424 98.9139 152.048 97.0223 151.317 95.2574C150.585 93.4925 149.513 91.8889 148.162 90.5382C146.81 89.1875 145.206 88.1161 143.44 87.3853C141.674 86.6545 139.781 86.2786 137.87 86.2791ZM137.96 108.513C136.385 108.514 134.846 108.048 133.537 107.174C132.228 106.301 131.207 105.059 130.604 103.605C130.001 102.152 129.843 100.553 130.15 99.0095C130.457 97.4663 131.214 96.0487 132.327 94.936C133.44 93.8233 134.858 93.0654 136.402 92.7582C137.946 92.451 139.547 92.6083 141.001 93.2102C142.455 93.8121 143.699 94.8316 144.573 96.1397C145.448 97.4478 145.915 98.9858 145.915 100.559C145.915 102.668 145.077 104.691 143.585 106.182C142.093 107.674 140.07 108.512 137.96 108.513Z" fill="#FCFCFC"/>
<path id="Vector_3" d="M10.8308 117.121C13.4365 117.121 15.5489 115.01 15.5489 112.406C15.5489 109.802 13.4365 107.691 10.8308 107.691C8.22513 107.691 6.11279 109.802 6.11279 112.406C6.11279 115.01 8.22513 117.121 10.8308 117.121Z" fill="#FCFCFC"/>
<path id="Vector_4" d="M14.2575 81.0957C17.0743 81.0957 19.3578 78.8136 19.3578 75.9984C19.3578 73.1833 17.0743 70.9011 14.2575 70.9011C11.4407 70.9011 9.15723 73.1833 9.15723 75.9984C9.15723 78.8136 11.4407 81.0957 14.2575 81.0957Z" fill="#FCFCFC"/>
</g>
<defs>
<filter id="filter0_i_808_2977" x="0" y="0" width="176" height="169" filterUnits="userSpaceOnUse" color-interpolation-filters="sRGB">
<feFlood flood-opacity="0" result="BackgroundImageFix"/>
<feBlend mode="normal" in="SourceGraphic" in2="BackgroundImageFix" result="shape"/>
<feColorMatrix in="SourceAlpha" type="matrix" values="0 0 0 0 0 0 0 0 0 0 0 0 0 0 0 0 0 0 127 0" result="hardAlpha"/>
<feOffset dy="4"/>
<feGaussianBlur stdDeviation="2"/>
<feComposite in2="hardAlpha" operator="arithmetic" k2="-1" k3="1"/>
<feColorMatrix type="matrix" values="0 0 0 0 0 0 0 0 0 0 0 0 0 0 0 0 0 0 0.25 0"/>
<feBlend mode="normal" in2="shape" result="effect1_innerShadow_808_2977"/>
</filter>
<clipPath id="clip0_808_2977">
<rect width="176" height="165" fill="white"/>
</clipPath>
</defs>
</svg>
